<svg xmlns="http://www.w3.org/2000/svg" viewBox="0 0 231.26 71.85"><defs><style>.cls-1{fill:#ffbd00;}.cls-2{fill:#f797d7;}.cls-3{fill:#0086f8;}.cls-4{fill:#fff;}</style></defs><g id="Layer_2" data-name="Layer 2"><g id="Layer_1-2" data-name="Layer 1"><rect class="cls-1" x="38" y="6.43" width="6.86" height="22.06" rx="3.43" transform="translate(73.59 48.88) rotate(-158.52)"/><rect class="cls-2" x="7.56" y="24.42" width="6.86" height="22.06" rx="3.43" transform="translate(8.25 72.46) rotate(-158.52)"/><rect class="cls-3" x="22.77" y="-1.07" width="6.86" height="22.06" rx="3.43" transform="translate(53.12 2.14) rotate(143)"/><rect class="cls-2" x="22.77" y="33.19" width="6.86" height="22.06" rx="3.43" transform="matrix(0.8, -0.6, 0.6, 0.8, -21.34, 24.67)"/><rect class="cls-1" x="38" y="24.78" width="6.86" height="22.06" rx="3.43" transform="translate(73.12 -8.85) rotate(84.52)"/><rect class="cls-3" x="7.56" y="6.8" width="6.86" height="22.06" rx="3.43" transform="translate(27.69 5.18) rotate(84.52)"/><path class="cls-4" d="M61.39,15.08,70.18,15l7.31,20.31,7.62-20.4,5.37,0L98.2,35l7.09-20.16,8.84-.05L101.28,50.62l-5.68,0L87.85,30.32,80.11,50.75l-5.62,0Z"/><path class="cls-4" d="M121.88,0a5.45,5.45,0,0,1,4.06,1.69,5.65,5.65,0,0,1,1.72,4.13A5.59,5.59,0,0,1,126,9.92a5.42,5.42,0,0,1-4,1.72,5.5,5.5,0,0,1-4.09-1.7,5.77,5.77,0,0,1-1.72-4.19,5.51,5.51,0,0,1,1.65-4A5.51,5.51,0,0,1,121.88,0Zm-4.4,14.76,9-.06.21,35.78-9,.05Z"/><path class="cls-4" d="M134.88,1.47l9-.05.08,13.18,5.33,0,0,7.73-5.32,0,.16,28-9,.06-.16-28-4.6,0-.05-7.73,4.61,0Z"/><path class="cls-4" d="M189.27,34.82,160.44,35a9.63,9.63,0,0,0,3.37,6,10.52,10.52,0,0,0,6.94,2.21,12,12,0,0,0,8.62-3.57L187,43.19a17.93,17.93,0,0,1-6.74,6,21.15,21.15,0,0,1-9.36,2q-8.42,0-13.74-5.23a18.06,18.06,0,0,1-5.37-13.27A18.68,18.68,0,0,1,156.94,19a17.75,17.75,0,0,1,13.21-5.48q8.44,0,13.77,5.33t5.38,14.25Zm-9-7A9,9,0,0,0,176.72,23a10.18,10.18,0,0,0-6.09-1.84,10.73,10.73,0,0,0-6.57,2.14,11.83,11.83,0,0,0-3.27,4.66Z"/><path class="cls-4" d="M222,.34l9-.06.28,49.59-9,.05,0-3.78A17.76,17.76,0,0,1,217,49.77a14.82,14.82,0,0,1-5.73,1.13,15.9,15.9,0,0,1-12-5.3,18.73,18.73,0,0,1-5.14-13.34q0-8.28,4.82-13.61a15.61,15.61,0,0,1,11.85-5.36,15.15,15.15,0,0,1,6.05,1.18,16.41,16.41,0,0,1,5.24,3.62Zm-9.31,21.23a9.06,9.06,0,0,0-6.9,3,10.65,10.65,0,0,0-2.71,7.56,10.72,10.72,0,0,0,2.85,7.61,9,9,0,0,0,6.91,3,9.24,9.24,0,0,0,7-3A10.78,10.78,0,0,0,222.58,32a10.44,10.44,0,0,0-2.83-7.54A9.34,9.34,0,0,0,212.69,21.57Z"/><path class="cls-4" d="M109.47,68.87a1.8,1.8,0,0,1-1.17-.37,1.78,1.78,0,0,1-.6-1h0l-.35,1.31h-.5l2-9.74h.6c-.55,2.62-.89,4.19-1,4.7h0a4.54,4.54,0,0,1,1.25-1.44,2.51,2.51,0,0,1,1.44-.46c1.18,0,1.76.79,1.76,2.35a6.09,6.09,0,0,1-.47,2.38,4.2,4.2,0,0,1-1.26,1.71A2.78,2.78,0,0,1,109.47,68.87ZM111,62.4a2,2,0,0,0-1.13.38,4,4,0,0,0-1,1.06,5,5,0,0,0-.66,1.48,4.94,4.94,0,0,0-.22,1.29,1.83,1.83,0,0,0,.4,1.26,1.29,1.29,0,0,0,1,.46,2.14,2.14,0,0,0,1.4-.52,3.64,3.64,0,0,0,1-1.53,5.69,5.69,0,0,0,.4-2,2.48,2.48,0,0,0-.31-1.4A1.07,1.07,0,0,0,111,62.4Z"/><path class="cls-4" d="M114.32,62h.62l.52,3.44c.21,1.46.33,2.4.34,2.81h.07c.18-.44.57-1.21,1.17-2.3L119.21,62h.65L115.39,70a5.65,5.65,0,0,1-.76,1.12,2.61,2.61,0,0,1-.72.51,2.17,2.17,0,0,1-.91.18,2.37,2.37,0,0,1-.81-.13v-.57a2.44,2.44,0,0,0,.86.17A1.51,1.51,0,0,0,114,71a2.93,2.93,0,0,0,.81-1l.63-1.15Z"/><path class="cls-4" d="M125.76,68.87A1.61,1.61,0,0,1,124,67.5h0c-.06.3-.37,1.75-.94,4.35h-.62L124.54,62h.51l-.28,1.72h0a4.31,4.31,0,0,1,1.22-1.4,2.5,2.5,0,0,1,1.43-.45,1.59,1.59,0,0,1,1.31.58,2.88,2.88,0,0,1,.45,1.77,6,6,0,0,1-.45,2.32,4.21,4.21,0,0,1-1.23,1.74A2.79,2.79,0,0,1,125.76,68.87Zm1.57-6.47a1.94,1.94,0,0,0-1.09.36,4.1,4.1,0,0,0-1,1.05,5.57,5.57,0,0,0-.91,2.8,1.89,1.89,0,0,0,.38,1.25,1.28,1.28,0,0,0,1.06.47,2.18,2.18,0,0,0,1.41-.52,3.67,3.67,0,0,0,1-1.53,5.33,5.33,0,0,0,.4-2C128.58,63,128.16,62.4,127.33,62.4Z"/><path class="cls-4" d="M133.9,61.83a2.27,2.27,0,0,1,1.75.68,2.71,2.71,0,0,1,.61,1.88,6,6,0,0,1-.45,2.31,3.63,3.63,0,0,1-1.22,1.63,2.94,2.94,0,0,1-1.79.57,2.19,2.19,0,0,1-1.75-.69,2.89,2.89,0,0,1-.6-2,5.41,5.41,0,0,1,.46-2.24,3.71,3.71,0,0,1,1.23-1.61A2.92,2.92,0,0,1,133.9,61.83Zm-.05.54a2.2,2.2,0,0,0-1.39.49,3.36,3.36,0,0,0-1,1.41,5.28,5.28,0,0,0-.36,2c0,1.43.58,2.14,1.76,2.14a2.18,2.18,0,0,0,1.41-.49,3.26,3.26,0,0,0,1-1.42,5.77,5.77,0,0,0,.36-2.07,2.21,2.21,0,0,0-.45-1.49A1.7,1.7,0,0,0,133.85,62.37Z"/><path class="cls-4" d="M141.34,61.85a3.5,3.5,0,0,1,.77.08l-.13.59a2.13,2.13,0,0,0-.71-.1,1.89,1.89,0,0,0-1.12.4,3.72,3.72,0,0,0-1,1.21,6.59,6.59,0,0,0-.62,1.73l-.63,3h-.61L138.77,62h.5l-.18,1.28h0a6.43,6.43,0,0,1,.77-.85,2.7,2.7,0,0,1,.67-.4A1.92,1.92,0,0,1,141.34,61.85Z"/><path class="cls-4" d="M145.93,62l-.11.51h-1.77l-.85,4a5.07,5.07,0,0,0-.14,1c0,.58.27.87.79.87a3.18,3.18,0,0,0,1-.17v.54a4,4,0,0,1-1.06.18,1.34,1.34,0,0,1-1-.34,1.39,1.39,0,0,1-.34-1,6.11,6.11,0,0,1,.19-1.29l.8-3.8h-1.14l.09-.42,1.15-.1.61-1.59h.35l-.35,1.6Z"/><path class="cls-4" d="M149.55,61.86a1.6,1.6,0,0,1,1.74,1.37h0L151.7,62h.5l-1.43,6.81h-.52l.29-1.71h0a4.56,4.56,0,0,1-1.17,1.36,2.44,2.44,0,0,1-1.49.48c-1.17,0-1.76-.78-1.76-2.34a6.1,6.1,0,0,1,.47-2.36,4.19,4.19,0,0,1,1.26-1.73A2.74,2.74,0,0,1,149.55,61.86ZM148,68.33A1.91,1.91,0,0,0,149.1,68a4,4,0,0,0,1-1,5.29,5.29,0,0,0,.68-1.44,5.07,5.07,0,0,0,.23-1.34,2.23,2.23,0,0,0-.16-.88,1.32,1.32,0,0,0-.49-.62,1.25,1.25,0,0,0-.79-.23,2.14,2.14,0,0,0-1.4.51,3.68,3.68,0,0,0-1,1.54,5.48,5.48,0,0,0-.4,2,2.48,2.48,0,0,0,.31,1.4A1.1,1.1,0,0,0,148,68.33Z"/><path class="cls-4" d="M153.6,68.77H153L155.11,59h.59Z"/><path class="cls-4" d="M158.45,68.9a2.14,2.14,0,0,1-1.69-.69,2.81,2.81,0,0,1-.61-1.91,5.37,5.37,0,0,1,.45-2.17,4,4,0,0,1,1.22-1.66,2.72,2.72,0,0,1,1.72-.61,1.65,1.65,0,0,1,1.14.38,1.32,1.32,0,0,1,.43,1,1.88,1.88,0,0,1-1,1.73,6.12,6.12,0,0,1-3,.59h-.2a4,4,0,0,0,0,.62,2.34,2.34,0,0,0,.46,1.57,1.68,1.68,0,0,0,1.34.54,3.84,3.84,0,0,0,1.72-.45v.59A4.24,4.24,0,0,1,158.45,68.9Zm1-6.5a2.12,2.12,0,0,0-1.53.72,4.25,4.25,0,0,0-1,1.93h.31c2.16,0,3.24-.56,3.24-1.69a.93.93,0,0,0-.27-.69A1,1,0,0,0,159.47,62.4Z"/><path class="cls-4" d="M165.43,61.86a1.62,1.62,0,0,1,1.75,1.37h0q.08-.42.9-4.2h.62l-2.07,9.74h-.51l.28-1.71h0a3.13,3.13,0,0,1-2.66,1.84c-1.17,0-1.76-.78-1.76-2.34a6.11,6.11,0,0,1,.45-2.32,4.24,4.24,0,0,1,1.24-1.75A2.79,2.79,0,0,1,165.43,61.86Zm-1.56,6.47a2,2,0,0,0,1.12-.39,4,4,0,0,0,1-1,5.19,5.19,0,0,0,.67-1.45,4.88,4.88,0,0,0,.22-1.31,2,2,0,0,0-.38-1.26,1.28,1.28,0,0,0-1.06-.47,2.12,2.12,0,0,0-1.4.52,3.67,3.67,0,0,0-1,1.52,5.38,5.38,0,0,0-.4,2C162.61,67.72,163,68.33,163.87,68.33Z"/><path class="cls-4" d="M170.81,62l-.95,4.38a4.75,4.75,0,0,0-.14,1,.94.94,0,0,0,.3.73,1.22,1.22,0,0,0,.86.27,2.23,2.23,0,0,0,1.3-.41,3.2,3.2,0,0,0,1-1.17,5.92,5.92,0,0,0,.62-1.75l.66-3h.61l-1.44,6.81h-.5l.17-1.28h0a3.07,3.07,0,0,1-2.52,1.38,1.76,1.76,0,0,1-1.24-.39,1.45,1.45,0,0,1-.43-1.13,6,6,0,0,1,.14-1.06l.94-4.33Z"/><path class="cls-4" d="M178.57,68.9a2.21,2.21,0,0,1-1.72-.69,2.78,2.78,0,0,1-.63-1.92,5.58,5.58,0,0,1,.46-2.27,3.8,3.8,0,0,1,1.24-1.61,3.06,3.06,0,0,1,1.82-.55,4,4,0,0,1,1.51.27l-.18.56a3.43,3.43,0,0,0-1.36-.29,2.39,2.39,0,0,0-1.46.48,3.18,3.18,0,0,0-1,1.39,5.39,5.39,0,0,0-.37,2,2.33,2.33,0,0,0,.46,1.53,1.63,1.63,0,0,0,1.31.53,3.51,3.51,0,0,0,.82-.08,3.59,3.59,0,0,0,.83-.29v.58A3.84,3.84,0,0,1,178.57,68.9Z"/><path class="cls-4" d="M185.24,61.86A1.61,1.61,0,0,1,187,63.23h0l.37-1.27h.5l-1.43,6.81H186l.28-1.71h0A4.56,4.56,0,0,1,185,68.42a2.44,2.44,0,0,1-1.49.48c-1.17,0-1.76-.78-1.76-2.34a6.1,6.1,0,0,1,.47-2.36,4.28,4.28,0,0,1,1.26-1.73A2.74,2.74,0,0,1,185.24,61.86Zm-1.56,6.47a1.91,1.91,0,0,0,1.11-.38,4.15,4.15,0,0,0,1-1,5.57,5.57,0,0,0,.67-1.44,5.07,5.07,0,0,0,.23-1.34,2.23,2.23,0,0,0-.16-.88,1.37,1.37,0,0,0-.48-.62,1.3,1.3,0,0,0-.8-.23,2.14,2.14,0,0,0-1.4.51,3.68,3.68,0,0,0-1,1.54,5.48,5.48,0,0,0-.4,2,2.48,2.48,0,0,0,.31,1.4A1.1,1.1,0,0,0,183.68,68.33Z"/><path class="cls-4" d="M192.58,62l-.12.51h-1.77l-.84,4a5.07,5.07,0,0,0-.14,1c0,.58.26.87.79.87a3.24,3.24,0,0,0,.95-.17v.54a4,4,0,0,1-1.06.18,1.3,1.3,0,0,1-1-.34,1.35,1.35,0,0,1-.34-1,6.67,6.67,0,0,1,.18-1.29l.81-3.8h-1.14l.09-.42,1.15-.1.61-1.59h.34l-.34,1.6Z"/><path class="cls-4" d="M193.18,68.77h-.61L194,62h.6Zm1.1-8.55a1,1,0,0,1,.14-.55.43.43,0,0,1,.38-.21c.23,0,.35.15.35.45a.91.91,0,0,1-.14.56.41.41,0,0,1-.35.21.34.34,0,0,1-.28-.12A.51.51,0,0,1,194.28,60.22Z"/><path class="cls-4" d="M196.79,68.77,195.72,62h.63l.67,4.61q.16,1,.21,1.59h0a17.27,17.27,0,0,1,.81-1.6l2.54-4.6h.64l-3.76,6.81Z"/><path class="cls-4" d="M204.73,61.83a2.25,2.25,0,0,1,1.75.68,2.71,2.71,0,0,1,.62,1.88,6,6,0,0,1-.45,2.31,3.72,3.72,0,0,1-1.23,1.63,2.92,2.92,0,0,1-1.79.57,2.19,2.19,0,0,1-1.75-.69,2.89,2.89,0,0,1-.6-2,5.57,5.57,0,0,1,.46-2.24A3.87,3.87,0,0,1,203,62.4,2.92,2.92,0,0,1,204.73,61.83Zm0,.54a2.22,2.22,0,0,0-1.39.49,3.34,3.34,0,0,0-1,1.41,5.09,5.09,0,0,0-.37,2c0,1.43.59,2.14,1.77,2.14a2.2,2.2,0,0,0,1.41-.49,3.24,3.24,0,0,0,1-1.42,5.56,5.56,0,0,0,.37-2.07,2.21,2.21,0,0,0-.46-1.49A1.69,1.69,0,0,0,204.68,62.37Z"/><path class="cls-4" d="M208.22,68.43a.87.87,0,0,1,.16-.56.52.52,0,0,1,.43-.2c.28,0,.41.15.41.45a.94.94,0,0,1-.15.55.51.51,0,0,1-.42.21C208.36,68.88,208.22,68.73,208.22,68.43Z"/><path class="cls-4" d="M215.53,68.77l.93-4.33a4.5,4.5,0,0,0,.14-1,1.09,1.09,0,0,0-.28-.78,1.11,1.11,0,0,0-.84-.28,2.3,2.3,0,0,0-1.32.42,3.4,3.4,0,0,0-1,1.17,6.76,6.76,0,0,0-.65,1.8l-.63,3h-.62L212.67,62h.51L213,63.35h0a3.06,3.06,0,0,1,2.6-1.49,1.65,1.65,0,0,1,1.22.4,1.51,1.51,0,0,1,.41,1.15,5.75,5.75,0,0,1-.15,1.14l-.93,4.22Z"/><path class="cls-4" d="M220.84,68.9a2.14,2.14,0,0,1-1.69-.69,2.81,2.81,0,0,1-.61-1.91,5.37,5.37,0,0,1,.45-2.17,4,4,0,0,1,1.22-1.66,2.7,2.7,0,0,1,1.72-.61,1.65,1.65,0,0,1,1.14.38,1.32,1.32,0,0,1,.43,1,1.88,1.88,0,0,1-1,1.73,6.12,6.12,0,0,1-3,.59h-.2a4,4,0,0,0,0,.62,2.34,2.34,0,0,0,.46,1.57,1.68,1.68,0,0,0,1.34.54,3.84,3.84,0,0,0,1.72-.45v.59A4.24,4.24,0,0,1,220.84,68.9Zm1-6.5a2.12,2.12,0,0,0-1.53.72,4.25,4.25,0,0,0-1,1.93h.31c2.16,0,3.24-.56,3.24-1.69a.93.93,0,0,0-.27-.69A1,1,0,0,0,221.86,62.4Z"/><path class="cls-4" d="M228.06,62l-.11.51h-1.77l-.85,4a5.07,5.07,0,0,0-.14,1c0,.58.27.87.79.87a3.18,3.18,0,0,0,1-.17v.54a4,4,0,0,1-1.06.18,1.34,1.34,0,0,1-1-.34,1.39,1.39,0,0,1-.34-1,6.11,6.11,0,0,1,.19-1.29l.8-3.8h-1.14l.09-.42,1.15-.1.61-1.59h.35l-.35,1.6Z"/></g></g></svg>